<mxfile host="app.diagrams.net" agent="Mozilla/5.0 (Windows NT 10.0; Win64; x64) AppleWebKit/537.36 (KHTML, like Gecko) Chrome/140.0.0.0 Safari/537.36" version="28.2.1">
  <diagram id="bIbUJsHXyxjtqQubw2oJ" name="Página-1">
    <mxGraphModel dx="1047" dy="725" grid="1" gridSize="10" guides="1" tooltips="1" connect="1" arrows="1" fold="1" page="1" pageScale="1" pageWidth="827" pageHeight="1169" math="0" shadow="0">
      <root>
        <mxCell id="0" />
        <mxCell id="1" parent="0" />
        <mxCell id="qj1xmgfkT_4xpLUc6lOm-4" style="edgeStyle=orthogonalEdgeStyle;rounded=0;orthogonalLoop=1;jettySize=auto;html=1;entryX=0.5;entryY=0;entryDx=0;entryDy=0;" edge="1" parent="1" source="qj1xmgfkT_4xpLUc6lOm-2" target="qj1xmgfkT_4xpLUc6lOm-3">
          <mxGeometry relative="1" as="geometry" />
        </mxCell>
        <mxCell id="qj1xmgfkT_4xpLUc6lOm-2" value="inicio" style="strokeWidth=2;html=1;shape=mxgraph.flowchart.terminator;whiteSpace=wrap;" vertex="1" parent="1">
          <mxGeometry x="230" y="60" width="100" height="60" as="geometry" />
        </mxCell>
        <mxCell id="qj1xmgfkT_4xpLUc6lOm-3" value="inteiro idade" style="rounded=1;whiteSpace=wrap;html=1;absoluteArcSize=1;arcSize=14;strokeWidth=2;" vertex="1" parent="1">
          <mxGeometry x="215" y="160" width="130" height="60" as="geometry" />
        </mxCell>
        <mxCell id="qj1xmgfkT_4xpLUc6lOm-5" value="&quot;Digite sua idade: &quot;" style="strokeWidth=2;html=1;shape=mxgraph.flowchart.display;whiteSpace=wrap;" vertex="1" parent="1">
          <mxGeometry x="210" y="270" width="140" height="70" as="geometry" />
        </mxCell>
        <mxCell id="qj1xmgfkT_4xpLUc6lOm-6" style="edgeStyle=orthogonalEdgeStyle;rounded=0;orthogonalLoop=1;jettySize=auto;html=1;entryX=0.5;entryY=0;entryDx=0;entryDy=0;entryPerimeter=0;" edge="1" parent="1" source="qj1xmgfkT_4xpLUc6lOm-3" target="qj1xmgfkT_4xpLUc6lOm-5">
          <mxGeometry relative="1" as="geometry" />
        </mxCell>
        <mxCell id="qj1xmgfkT_4xpLUc6lOm-7" value="idade" style="html=1;strokeWidth=2;shape=manualInput;whiteSpace=wrap;rounded=1;size=26;arcSize=11;" vertex="1" parent="1">
          <mxGeometry x="228" y="370" width="110" height="60" as="geometry" />
        </mxCell>
        <mxCell id="qj1xmgfkT_4xpLUc6lOm-8" style="edgeStyle=orthogonalEdgeStyle;rounded=0;orthogonalLoop=1;jettySize=auto;html=1;entryX=0.48;entryY=0.283;entryDx=0;entryDy=0;entryPerimeter=0;" edge="1" parent="1" source="qj1xmgfkT_4xpLUc6lOm-5" target="qj1xmgfkT_4xpLUc6lOm-7">
          <mxGeometry relative="1" as="geometry" />
        </mxCell>
        <mxCell id="qj1xmgfkT_4xpLUc6lOm-14" value="" style="edgeStyle=orthogonalEdgeStyle;rounded=0;orthogonalLoop=1;jettySize=auto;html=1;" edge="1" parent="1" source="qj1xmgfkT_4xpLUc6lOm-9" target="qj1xmgfkT_4xpLUc6lOm-11">
          <mxGeometry relative="1" as="geometry" />
        </mxCell>
        <mxCell id="qj1xmgfkT_4xpLUc6lOm-9" value="idade &amp;gt;= 18" style="strokeWidth=2;html=1;shape=mxgraph.flowchart.decision;whiteSpace=wrap;" vertex="1" parent="1">
          <mxGeometry x="218" y="465" width="130" height="120" as="geometry" />
        </mxCell>
        <mxCell id="qj1xmgfkT_4xpLUc6lOm-10" style="edgeStyle=orthogonalEdgeStyle;rounded=0;orthogonalLoop=1;jettySize=auto;html=1;entryX=0.5;entryY=0;entryDx=0;entryDy=0;entryPerimeter=0;" edge="1" parent="1" source="qj1xmgfkT_4xpLUc6lOm-7" target="qj1xmgfkT_4xpLUc6lOm-9">
          <mxGeometry relative="1" as="geometry" />
        </mxCell>
        <mxCell id="qj1xmgfkT_4xpLUc6lOm-11" value="&quot;Você é maior de idade.&quot;" style="strokeWidth=2;html=1;shape=mxgraph.flowchart.display;whiteSpace=wrap;" vertex="1" parent="1">
          <mxGeometry x="203" y="650" width="160" height="70" as="geometry" />
        </mxCell>
        <mxCell id="qj1xmgfkT_4xpLUc6lOm-13" value="VERDADE" style="text;html=1;align=center;verticalAlign=middle;resizable=0;points=[];autosize=1;strokeColor=none;fillColor=none;" vertex="1" parent="1">
          <mxGeometry x="280" y="590" width="80" height="30" as="geometry" />
        </mxCell>
        <mxCell id="qj1xmgfkT_4xpLUc6lOm-15" value="&quot;Você é menor de idade.&quot;" style="strokeWidth=2;html=1;shape=mxgraph.flowchart.display;whiteSpace=wrap;" vertex="1" parent="1">
          <mxGeometry x="420" y="650" width="160" height="70" as="geometry" />
        </mxCell>
        <mxCell id="qj1xmgfkT_4xpLUc6lOm-16" style="edgeStyle=orthogonalEdgeStyle;rounded=0;orthogonalLoop=1;jettySize=auto;html=1;entryX=0.625;entryY=0;entryDx=0;entryDy=0;entryPerimeter=0;" edge="1" parent="1" source="qj1xmgfkT_4xpLUc6lOm-9" target="qj1xmgfkT_4xpLUc6lOm-15">
          <mxGeometry relative="1" as="geometry" />
        </mxCell>
        <mxCell id="qj1xmgfkT_4xpLUc6lOm-17" value="FALSO" style="text;html=1;align=center;verticalAlign=middle;resizable=0;points=[];autosize=1;strokeColor=none;fillColor=none;" vertex="1" parent="1">
          <mxGeometry x="350" y="490" width="60" height="30" as="geometry" />
        </mxCell>
        <mxCell id="qj1xmgfkT_4xpLUc6lOm-18" value="fim" style="strokeWidth=2;html=1;shape=mxgraph.flowchart.terminator;whiteSpace=wrap;" vertex="1" parent="1">
          <mxGeometry x="360" y="780" width="100" height="60" as="geometry" />
        </mxCell>
        <mxCell id="qj1xmgfkT_4xpLUc6lOm-19" style="edgeStyle=orthogonalEdgeStyle;rounded=0;orthogonalLoop=1;jettySize=auto;html=1;entryX=0;entryY=0.5;entryDx=0;entryDy=0;entryPerimeter=0;" edge="1" parent="1" source="qj1xmgfkT_4xpLUc6lOm-11" target="qj1xmgfkT_4xpLUc6lOm-18">
          <mxGeometry relative="1" as="geometry" />
        </mxCell>
        <mxCell id="qj1xmgfkT_4xpLUc6lOm-20" style="edgeStyle=orthogonalEdgeStyle;rounded=0;orthogonalLoop=1;jettySize=auto;html=1;entryX=1;entryY=0.5;entryDx=0;entryDy=0;entryPerimeter=0;" edge="1" parent="1" source="qj1xmgfkT_4xpLUc6lOm-15" target="qj1xmgfkT_4xpLUc6lOm-18">
          <mxGeometry relative="1" as="geometry" />
        </mxCell>
      </root>
    </mxGraphModel>
  </diagram>
</mxfile>
